<svg width="418" height="96" viewBox="0 0 418 96" fill="none" xmlns="http://www.w3.org/2000/svg">
<path d="M314.053 27.1795H302.589L293.446 79.5584H304.91L314.053 27.1795Z" fill="black" fill-opacity="0.9" style="fill:black;fill-opacity:0.9;"/>
<path d="M317.92 6.77133H306.02L303.898 18.6711H315.798L317.92 6.77133Z" fill="black" fill-opacity="0.9" style="fill:black;fill-opacity:0.9;"/>
<path d="M145.57 19.8413H128.573L117.962 79.5584H105.567L116.098 19.8413H99.022L100.866 9.5876H147.414L145.57 19.8413Z" fill="black" fill-opacity="0.9" style="fill:black;fill-opacity:0.9;"/>
<path fill-rule="evenodd" clip-rule="evenodd" d="M201.262 27.2589C201.22 31.253 200.822 35.2354 200.072 39.1587L198.088 50.8998C193.884 74.8382 187.379 79.5585 168.854 79.5585H140.394L152.691 9.62731H176.986C194.618 9.62731 201.262 14.0501 201.262 27.2589ZM188.886 29.1232C188.886 21.19 185.098 19.881 175.122 19.881H163.222L154.614 69.3048H166.356C180.239 69.3048 183.075 66.5282 185.752 50.9196L187.736 39.1785C188.404 35.8656 188.789 32.5016 188.886 29.1232Z" fill="black" fill-opacity="0.9" style="fill:black;fill-opacity:0.9;"/>
<path fill-rule="evenodd" clip-rule="evenodd" d="M248.186 40.9436C248.432 39.6023 248.558 38.2416 248.563 36.8778C248.563 29.1231 243.386 26.525 233.688 26.4258H227.401C213.835 26.4258 208.48 29.024 206.259 41.7567L202.649 62.4624C202.274 64.5983 202.061 66.7598 202.015 68.928C202.015 76.405 206.358 79.4593 218.258 79.4593H235.255L239.043 70.1179H220.479C215.124 70.1179 213.458 69.3841 213.458 66.1513C213.508 64.8193 213.66 63.4932 213.914 62.1847L214.39 59.3288H234.68C242.355 59.3288 245.409 56.453 246.877 48.2421L248.186 40.9436ZM231.387 35.7672C235.632 35.7672 237.02 36.3225 237.02 38.5438H236.96C236.946 39.362 236.866 40.1777 236.722 40.9833L235.711 46.9332C235.717 47.4326 235.614 47.9273 235.409 48.3828C235.204 48.8382 234.902 49.2435 234.525 49.5702C234.147 49.897 233.702 50.1373 233.222 50.2745C232.742 50.4116 232.238 50.4423 231.744 50.3643H216.056L217.524 41.8559C218.536 36.3225 220.578 35.7672 224.823 35.7672H231.387Z" fill="black" fill-opacity="0.9" style="fill:black;fill-opacity:0.9;"/>
<path d="M249.198 70.2171H271.014C274.624 70.2171 275.278 69.6618 275.913 66.072L276.746 61.1733C276.897 60.4748 276.99 59.765 277.024 59.0512C277.024 57.8413 276.369 57.6628 274.247 57.6628H263.636C255.505 57.6628 252.827 56.096 252.827 50.8205C252.914 48.2474 253.219 45.6863 253.74 43.1649L254.493 39C256.338 28.3695 259.095 27.1002 269.547 27.1002H292.91L288.943 36.4217H269.467C265.858 36.4217 265.203 36.977 264.568 40.5866L263.835 44.7317C263.673 45.4284 263.58 46.1391 263.557 46.8539C263.557 48.0637 264.192 48.2422 266.314 48.2422H277.4C285.532 48.2422 288.209 49.809 288.209 55.0846C288.122 57.6641 287.816 60.2317 287.297 62.7599L286.266 68.571C284.62 78.1702 281.843 79.4792 270.935 79.4792H250.844L249.198 70.2171Z" fill="black" fill-opacity="0.9" style="fill:black;fill-opacity:0.9;"/>
<path fill-rule="evenodd" clip-rule="evenodd" d="M364.309 38.6231C364.172 41.9557 363.768 45.2719 363.099 48.5396L357.368 80.9269C355.146 93.501 349.712 96 339.082 96H319.13L317.464 86.5595H336.503C343.703 86.5595 345.091 86.024 346.42 77.8925L347.054 74.2829H333.766C322.025 74.2829 317.126 71.0501 317.126 62.1847C317.261 58.852 317.666 55.5357 318.336 52.2682L319.725 44.5928C322.402 29.8173 325.813 26.4853 341.243 26.4853H347.61C359.41 26.525 364.309 29.7578 364.309 38.6231ZM348.78 64.9613L351.636 48.4206C352.227 45.812 352.599 43.1582 352.746 40.4874C352.746 36.5208 350.763 35.787 344.813 35.787H340.668C333.647 35.787 332.537 37.9091 331.327 44.6524L329.939 52.3277C329.383 54.9429 329.012 57.5938 328.828 60.2609C328.828 64.2275 330.811 64.9812 336.88 64.9812L348.78 64.9613Z" fill="black" fill-opacity="0.9" style="fill:black;fill-opacity:0.9;"/>
<path d="M415.557 47.8653C416.336 44.1531 416.833 40.3873 417.045 36.6002C417.045 29.9363 413.336 27.1795 401.575 27.1002H376.129L366.986 79.4792H378.43L385.907 36.6002H399.394C403.737 36.6002 405.125 37.334 405.125 40.5668C405.008 43.0205 404.696 45.461 404.193 47.8653L398.561 79.5982H410.024L415.557 47.8653Z" fill="black" fill-opacity="0.9" style="fill:black;fill-opacity:0.9;"/>
<path d="M28.258 79.4792H12.1734C11.907 79.4789 11.6437 79.4215 11.4013 79.3109C11.1589 79.2003 10.943 79.039 10.7682 78.8379C10.5935 78.6368 10.4638 78.4005 10.388 78.1451C10.3122 77.8897 10.2921 77.6209 10.329 77.3571L13.4626 59.666H33.2956L30.0628 77.9917C29.9768 78.4084 29.7509 78.7831 29.4226 79.0537C29.0943 79.3242 28.6834 79.4744 28.258 79.4792Z" fill="#009BFF" style="fill:#009BFF;fill:color(display-p3 0.0000 0.6078 1.0000);fill-opacity:1;"/>
<path d="M73.5375 19.8414H20.4644L23.955 0.00835695H76.3141C76.6008 -0.0190299 76.89 0.0211144 77.1584 0.125574C77.4268 0.230034 77.667 0.395906 77.8598 0.609903C78.0526 0.823899 78.1926 1.08007 78.2686 1.3579C78.3446 1.63573 78.3544 1.92749 78.2974 2.20982L75.3621 18.3539C75.2826 18.7773 75.0557 19.159 74.7218 19.4312C74.3878 19.7035 73.9683 19.8488 73.5375 19.8414Z" fill="url(#paint0_linear_27899_15376)" style=""/>
<path d="M20.4642 19.8416H2.81285C2.5428 19.8446 2.27533 19.7889 2.02893 19.6784C1.78253 19.5678 1.56309 19.4051 1.38578 19.2014C1.20848 18.9977 1.07756 18.7579 1.00206 18.4986C0.926566 18.2393 0.908306 17.9667 0.948545 17.6996L3.82433 1.53575C3.90289 1.10848 4.1282 0.722067 4.46134 0.443241C4.79449 0.164415 5.21454 0.0106865 5.64897 0.00860596L23.9548 0.00860596L20.4642 19.8416Z" fill="#0064FF" style="fill:#0064FF;fill:color(display-p3 0.0000 0.3922 1.0000);fill-opacity:1;"/>
<path d="M33.316 59.6065H13.4434L20.4642 19.881H40.3369L33.316 59.6065Z" fill="url(#paint1_linear_27899_15376)" style=""/>
<defs>
<linearGradient id="paint0_linear_27899_15376" x1="22.1664" y1="9.94469" x2="75.0916" y2="19.4712" gradientUnits="userSpaceOnUse">
<stop offset="0.03" stop-color="#E9FFFF" style="stop-color:#E9FFFF;stop-color:color(display-p3 0.9137 1.0000 1.0000);stop-opacity:1;"/>
<stop offset="0.17" stop-color="#C4FAC9" style="stop-color:#C4FAC9;stop-color:color(display-p3 0.7686 0.9804 0.7882);stop-opacity:1;"/>
<stop offset="0.33" stop-color="#A0F694" style="stop-color:#A0F694;stop-color:color(display-p3 0.6275 0.9647 0.5804);stop-opacity:1;"/>
<stop offset="0.48" stop-color="#82F269" style="stop-color:#82F269;stop-color:color(display-p3 0.5098 0.9490 0.4118);stop-opacity:1;"/>
<stop offset="0.63" stop-color="#6AEF47" style="stop-color:#6AEF47;stop-color:color(display-p3 0.4157 0.9373 0.2784);stop-opacity:1;"/>
<stop offset="0.76" stop-color="#5AED2F" style="stop-color:#5AED2F;stop-color:color(display-p3 0.3529 0.9294 0.1843);stop-opacity:1;"/>
<stop offset="0.89" stop-color="#4FEB20" style="stop-color:#4FEB20;stop-color:color(display-p3 0.3098 0.9216 0.1255);stop-opacity:1;"/>
<stop offset="1" stop-color="#4CEB1B" style="stop-color:#4CEB1B;stop-color:color(display-p3 0.2980 0.9216 0.1059);stop-opacity:1;"/>
</linearGradient>
<linearGradient id="paint1_linear_27899_15376" x1="30.3764" y1="18.4332" x2="30.7518" y2="55.8102" gradientUnits="userSpaceOnUse">
<stop stop-color="#009BFF" style="stop-color:#009BFF;stop-color:color(display-p3 0.0000 0.6078 1.0000);stop-opacity:1;"/>
<stop offset="0.35" stop-color="#0081FE" style="stop-color:#0081FE;stop-color:color(display-p3 0.0000 0.5059 0.9961);stop-opacity:1;"/>
<stop offset="0.75" stop-color="#006AFD" style="stop-color:#006AFD;stop-color:color(display-p3 0.0000 0.4157 0.9922);stop-opacity:1;"/>
<stop offset="1" stop-color="#0062FD" style="stop-color:#0062FD;stop-color:color(display-p3 0.0000 0.3843 0.9922);stop-opacity:1;"/>
</linearGradient>
</defs>
</svg>
